<?xml version="1.0" encoding="UTF-8" standalone="no"?>
<!-- Created with Inkscape (http://www.inkscape.org/) -->

<svg
   width="56.758808mm"
   height="64.822922mm"
   viewBox="0 0 56.758808 64.822922"
   version="1.1"
   id="svg1"
   xmlns="http://www.w3.org/2000/svg"
   xmlns:svg="http://www.w3.org/2000/svg">
  <defs
     id="defs1" />
  <g
     id="layer1"
     transform="translate(-62.177083,-52.122916)">
    <path
       id="path4"
       style="clip-rule:evenodd;fill:#000000;fill-opacity:1;fill-rule:nonzero;stroke-width:45.0035;stroke-linecap:round;stroke-linejoin:round;stroke-miterlimit:1.5"
       d="m 90.556746,52.122917 c -8.102366,0 -15.4313,1.617907 -20.569287,4.137732 -5.137989,2.519817 -7.810376,5.767533 -7.810376,8.826851 0,3.059317 2.672387,6.277416 7.810376,8.797396 5.137987,2.51997 12.466921,4.167187 20.569287,4.167187 8.102515,0 15.431304,-1.647217 20.569284,-4.167187 5.13784,-2.51998 7.80986,-5.738079 7.80986,-8.797396 0,-3.059318 -2.67202,-6.306878 -7.80986,-8.826851 -5.13798,-2.519981 -12.466769,-4.137732 -20.569284,-4.137732 z M 80.547021,56.7092 c 4.200952,0 7.254651,2.582953 10.009725,5.119067 2.755074,-2.536114 5.808769,-5.119067 10.009724,-5.119067 2.28192,0 4.96304,0.535011 7.3086,1.65778 1.17278,0.561385 2.26725,1.273092 3.14038,2.248442 0.87312,0.975351 1.5136,2.292803 1.5136,3.755843 0,1.463039 -0.64048,2.778426 -1.5136,3.753776 -0.87313,0.97535 -1.9676,1.688607 -3.14038,2.249992 -2.34556,1.122768 -5.02668,1.658296 -7.3086,1.658296 -4.200955,0 -7.25465,-2.582952 -10.009724,-5.119067 -2.755074,2.536115 -5.808773,5.119067 -10.009725,5.119067 -2.28192,0 -4.963043,-0.535528 -7.308597,-1.658296 -1.172777,-0.561385 -2.267768,-1.274641 -3.140894,-2.249992 -0.873125,-0.975351 -1.513603,-2.290738 -1.513603,-3.753776 0,-1.463039 0.640478,-2.780492 1.513603,-3.755843 0.873126,-0.97535 1.968117,-1.687057 3.140894,-2.248442 2.345554,-1.122769 5.026676,-1.65778 7.308597,-1.65778 z m 0,3.904154 c -1.609475,0 -3.936565,0.467907 -5.623429,1.275375 -0.843432,0.403733 -1.521894,0.890058 -1.917712,1.332218 -0.395819,0.442161 -0.517798,0.763563 -0.517798,1.150318 0,0.386754 0.121979,0.708156 0.517798,1.150317 0.395818,0.442161 1.07428,0.926418 1.917712,1.330151 1.686864,0.807469 4.013954,1.276925 5.623429,1.276925 2.364327,0 4.604184,-1.678499 6.968567,-3.757393 -2.364383,-2.078895 -4.60424,-3.757911 -6.968567,-3.757911 z m 20.019449,0 c -2.364332,0 -4.604182,1.679016 -6.968566,3.757911 2.364384,2.078894 4.604234,3.757393 6.968566,3.757393 1.60947,0 3.93606,-0.469456 5.62291,-1.276925 0.84344,-0.403733 1.52035,-0.887989 1.91617,-1.330151 0.39582,-0.442161 0.51934,-0.763564 0.51934,-1.150317 0,-0.386754 -0.12352,-0.708156 -0.51934,-1.150318 -0.39582,-0.44216 -1.07273,-0.928485 -1.91617,-1.332218 -1.68685,-0.807468 -4.01344,-1.275375 -5.62291,-1.275375 z m -38.389387,12.3455 c 1.653048,1.633883 3.771611,3.058758 6.207889,4.253486 5.796045,2.84262 13.589588,4.54391 22.171774,4.54391 8.582186,0 16.375054,-1.701136 22.171254,-4.54391 2.43628,-1.194884 4.55484,-2.619603 6.20789,-4.253486 v 5.093229 c 0,3.059321 -2.67202,6.277575 -7.80986,8.797396 -5.13799,2.519979 -12.466761,4.167187 -20.569284,4.167187 -8.102375,0 -15.431296,-1.647208 -20.569288,-4.167187 -5.137994,-2.519979 -7.810375,-5.738233 -7.810375,-8.797396 z m 0,12.964583 c 1.653048,1.633887 3.771611,3.059274 6.207889,4.254003 5.796045,2.842619 13.589588,4.543393 22.171774,4.543393 8.582186,0 16.375054,-1.700618 22.171254,-4.543393 2.43628,-1.19488 4.55484,-2.620116 6.20789,-4.254003 v 5.093229 c 0,3.059319 -2.67202,6.277576 -7.80986,8.797396 -5.13799,2.519978 -12.466761,4.167188 -20.569284,4.167188 -8.102375,0 -15.431296,-1.64721 -20.569288,-4.167188 -5.137994,-2.51982 -7.810375,-5.738077 -7.810375,-8.797396 z m 0,12.964583 c 1.653048,1.63389 3.771611,3.05928 6.207889,4.254 5.796045,2.84262 13.589588,4.5434 22.171774,4.5434 8.582186,0 16.375054,-1.70062 22.171254,-4.5434 2.43628,-1.19472 4.55484,-2.62011 6.20789,-4.254 v 5.09323 c 0,3.05916 -2.67202,6.27742 -7.80986,8.7974 -5.13799,2.51997 -12.466761,4.16718 -20.569284,4.16718 -8.102375,0 -15.431296,-1.64721 -20.569288,-4.16718 -5.137837,-2.51998 -7.810375,-5.73824 -7.810375,-8.7974 z" />
  </g>
</svg>
