<?xml version="1.0" encoding="UTF-8" standalone="no"?>
<svg
   width="700"
   height="273"
   viewBox="0 0 700 273"
   version="1.1"
   xml:space="preserve"
   style="clip-rule:evenodd;fill-rule:evenodd;stroke-linecap:round;stroke-linejoin:round;stroke-miterlimit:1.5"
   id="svg21"
   xmlns="http://www.w3.org/2000/svg"
   xmlns:svg="http://www.w3.org/2000/svg"><defs
   id="defs21" />
    <path
   style="clip-rule:evenodd;fill:#ffffff;fill-opacity:1;fill-rule:evenodd;stroke-width:0.58459;stroke-linecap:round;stroke-linejoin:round;stroke-miterlimit:1.5"
   d="m 699.99733,62.99988 c 0,-19.36561 -15.39761,-35.19406 -37.30281,-45.93725 C 640.78933,6.31885 611.33559,6e-5 578.89892,6e-5 546.46225,6e-5 0,0 0,0 v 273 c 0,0 546.46225,6e-5 578.89892,6e-5 32.43667,0 61.89041,-6.42817 83.79735,-17.17194 21.90519,-10.74318 37.30281,-26.46286 37.30281,-45.82729"
   id="path1-6" /><path
   id="rect1"
   style="fill:#000000;fill-opacity:1;fill-rule:nonzero;stroke-width:170.092"
   d="M 578.90039,0 C 546.46378,0 517.00903,6.3187414 495.10156,17.0625 473.19583,27.805668 457.79883,43.634427 457.79883,63 c 0.0349,48.28193 0,98.1454 0,147 0,19.36557 15.39758,35.08438 37.30273,45.82812 C 517.00787,266.57187 546.46378,273 578.90039,273 611.337,273 640.79037,266.57187 662.69727,255.82812 684.6024,245.08498 700,229.36439 700,210 L 699.998,63 c 0,-19.365573 -15.39758,-35.194332 -37.30274,-45.9375 C 640.79016,6.3187414 611.337,0 578.90039,0 Z M 9.0507812,0.00585938 C 4.0641521,0.00585934 0.00585936,4.0641611 0.00585938,9.0507812 0.00585921,12.294061 1.7245798,15.143495 4.296875,16.740234 V 133.20703 h 0.041016 v 18.33203 c -2.5955505,1.59171 -4.33203071,4.45592 -4.33203122,7.7168 7.7e-7,4.9866 4.05829322,9.04492 9.04492182,9.04492 4.9866284,0 9.0449204,-4.05832 9.0449214,-9.04492 -1e-6,-3.25992 -1.735803,-6.12288 -4.330078,-7.71484 v -18.33399 h 0.05664 V 16.730469 c 2.56284,-1.598737 4.273437,-4.443569 4.273437,-7.6796878 0,-4.98662 -4.058293,-9.04492171 -9.0449208,-9.04492182 z M 154.41797,3.9375 c -7.82421,0 -13.94853,2.5515417 -18.54102,7.654297 -4.42237,5.102755 -6.80256,12.246681 -6.97265,21.431641 v 10.375 h -12.41797 v 8.333984 h 12.41797 v 81.474608 h 9.35351 V 51.732422 h 17.17969 v -8.333984 h -17.17969 v -10.375 c 0.17009,-13.267164 5.95398,-19.902344 16.83985,-19.902344 5.78311,0 11.56667,1.532267 17.17968,4.423828 l 1.53125,-8.6757814 C 167.17502,5.467304 160.71136,3.9375 154.41797,3.9375 Z m 137.70312,6.632812 c -1.87099,1e-6 -3.40132,0.68028 -4.42187,2.041016 -1.19065,1.360736 -1.70117,2.892663 -1.70117,4.763672 0,1.87101 0.51052,3.571076 1.70117,4.761719 1.02055,1.360733 2.55088,2.041015 4.42187,2.041015 1.87101,0 3.4031,-0.680282 4.59375,-2.041015 1.02055,-1.190643 1.5293,-2.890709 1.5293,-4.761719 0,-1.871009 -0.50875,-3.402936 -1.5293,-4.763672 -1.19065,-1.360736 -2.72274,-2.041015 -4.59375,-2.041016 z M 578.90039,14 c 30.62371,0 58.323,6.11433 77.74219,15.638672 19.4186,9.524319 29.51758,21.798542 29.51758,33.361328 0,11.562786 -10.09898,23.72566 -29.51758,33.25 C 637.22339,105.77431 609.5241,112 578.90039,112 548.27724,112 520.57738,105.77431 501.1582,96.25 481.73901,86.72566 471.63867,74.562786 471.63867,63 c 0,-11.562786 10.10034,-23.837598 29.51953,-33.361328 C 520.57738,20.114919 548.27724,14 578.90039,14 Z m -252.00391,6.435547 v 22.962891 h -13.94726 v 8.333984 h 13.94726 V 112.625 c 0.17009,14.798 5.78425,22.2832 16.5,22.2832 3.91213,0 6.97258,-0.51069 9.01368,-1.53125 l -0.16993,-8.16406 c -2.89154,0.51028 -5.10198,0.84961 -6.63281,0.84961 -3.40181,0 -5.95372,-1.3609 -7.31445,-3.74219 -1.53083,-2.38129 -2.21094,-5.95211 -2.21094,-10.88476 V 51.732422 h 15.30859 V 43.398438 H 336.08203 V 20.435547 Z m 188.84766,7.201172 c -2.63144,0 -4.68583,0.403751 -6.16602,1.208984 -1.39793,0.805234 -2.09765,2.414376 -2.09765,4.830078 0,4.02617 2.50728,6.039063 7.52344,6.039063 v 46.261718 c -2.38473,0 -4.23509,0.523509 -5.55079,1.570313 -1.31572,1.046806 -1.97265,2.53619 -1.97265,4.46875 0,4.02617 2.75411,6.039063 8.26367,6.039063 h 25.16406 c 9.95009,0 17.88398,-2.81844 23.80469,-8.455079 6.00292,-5.71716 9.00586,-13.285792 9.00586,-22.707031 v -5.677734 c 0,-9.501762 -3.08457,-17.474144 -9.25195,-23.916016 -6.08519,-6.441871 -13.60898,-9.662109 -22.57227,-9.662109 z m 73.88672,0 c -2.5492,0 -4.56474,0.442368 -6.04492,1.328125 -1.39796,0.805233 -2.09766,2.375758 -2.09766,4.710937 0,4.02617 2.71524,6.039063 8.14258,6.039063 h 1.84961 v 46.261718 h -1.84961 c -5.42734,10e-7 -8.14258,2.012892 -8.14258,6.039063 0,4.02617 2.71524,6.039063 8.14258,6.039063 h 36.38672 c 7.31864,0 13.19813,-1.771425 17.63867,-5.314454 4.44053,-3.543031 6.66211,-8.214034 6.66211,-14.011718 0,-7.408153 -4.35957,-13.245933 -13.07617,-17.513672 5.1806,-3.945647 7.77148,-8.494939 7.77148,-13.648438 0,-5.717161 -2.30321,-10.467355 -6.9082,-14.251953 -4.52275,-3.784599 -10.27784,-5.677734 -17.26758,-5.677734 z m -62.29102,12.078125 h 13.56836 c 6.16741,0 11.10035,2.053463 14.80078,6.160156 3.78268,4.02617 5.67383,9.060356 5.67383,15.099609 v 5.554688 c 0,2.335179 -0.28766,4.510353 -0.86328,6.523437 -0.4934,2.013086 -1.438,4.066547 -2.83594,6.160157 -1.31571,2.093606 -3.41289,3.743319 -6.29101,4.951171 -2.79589,1.20785 -6.24973,1.8125 -10.36133,1.8125 h -13.69141 z m 76.47461,0 h 16.40625 c 3.86493,0 6.9067,0.685789 9.12696,2.054687 2.22024,1.368897 3.33203,3.260079 3.33203,5.675781 0,2.737797 -1.39945,4.992158 -4.19531,6.763672 -2.71366,1.690992 -6.28993,2.53711 -10.73047,2.53711 H 603.81445 Z M 75.419922,41.697266 c -5.272845,0 -9.866847,1.360392 -14.119141,4.251953 -4.082202,2.89156 -7.483611,6.803665 -10.205078,11.736328 L 50.925781,43.398438 h -8.84375 v 89.808592 h 9.183594 V 70.783203 c 2.041101,-6.293398 4.933594,-11.226901 8.845703,-14.798828 3.91211,-3.74202 8.163213,-5.441406 12.925781,-5.441406 5.953211,0 10.376187,1.869308 13.097657,5.611328 2.721467,3.912112 4.251953,9.867012 4.251953,17.861328 v 59.191405 h 9.185547 V 72.994141 C 99.061989,52.072846 91.068361,41.697266 75.419922,41.697266 Z m 162.367188,0 c -5.27286,0 -9.86489,1.360392 -14.11719,4.251953 -4.08219,2.89156 -7.48555,6.803665 -10.20703,11.736328 l -0.16992,-14.287109 h -8.84375 v 89.808592 h 9.18359 V 70.783203 c 2.04111,-6.293398 4.93359,-11.226901 8.84571,-14.798828 3.91209,-3.74202 8.16515,-5.441406 12.92773,-5.441406 5.9532,0 10.37426,1.869308 13.0957,5.611328 2.72148,3.912112 4.25391,9.867012 4.25391,17.861328 v 59.191405 h 9.18359 V 72.994141 C 261.42918,52.072846 253.43554,41.697266 237.78711,41.697266 Z m 161.74609,0 c -10.03541,0 -17.85944,3.742523 -23.64258,11.226562 -5.78311,7.484041 -8.67578,17.85996 -8.67578,30.957031 v 11.054688 c 0.17009,12.756893 3.06226,22.621943 9.18555,29.595703 5.9532,6.80366 14.1182,10.37695 24.83399,10.37695 11.90639,0 20.74992,-4.08186 26.70312,-12.07617 l -4.93164,-6.125 c -5.44295,6.46348 -12.58687,9.69531 -21.43164,9.69531 -7.99431,0 -14.28854,-2.72096 -18.71094,-8.33398 -4.25227,-5.61305 -6.46289,-13.60699 -6.46289,-23.812501 v -5.103515 h 53.4082 v -8.673828 c -0.17009,-13.097072 -2.72128,-22.792369 -7.99414,-29.25586 -5.10274,-6.293395 -12.41593,-9.52539 -22.28125,-9.52539 z m -230.14843,1.701172 v 89.808592 h 9.35546 V 43.398438 Z m 117.97461,0 v 89.808592 h 9.35546 V 43.398438 Z m 112.17382,6.972656 c 13.60735,0 20.5817,9.186554 20.92188,27.726562 v 2.38086 h -44.05469 c 0.34018,-9.865329 2.5508,-17.35037 6.46289,-22.453125 3.91212,-5.102755 9.52608,-7.654297 16.66992,-7.654297 z m 204.28125,18.453125 h 16.65235 c 5.26284,0 9.49801,0.965877 12.70508,2.898437 3.20705,1.932563 4.81054,4.509533 4.81054,7.730469 0,4.348262 -4.19434,6.523437 -12.58203,6.523437 H 603.81445 Z M 471.63867,92.75 c 6.24774,6.175308 14.25491,11.56066 23.46289,16.07617 C 517.00787,119.56993 546.46378,126 578.90039,126 c 32.43661,0 61.88998,-6.42949 83.79688,-17.17383 9.20798,-4.5161 17.21514,-9.900862 23.46289,-16.07617 V 112 c 0,11.56279 -10.09898,23.72627 -29.51758,33.25 C 637.22339,154.77433 609.5241,161 578.90039,161 548.27724,161 520.57738,154.77433 501.1582,145.25 481.73901,135.72567 471.63867,123.56219 471.63867,112 Z m 0,49 c 6.24774,6.17532 14.25491,11.56261 23.46289,16.07812 C 517.00787,168.57188 546.46378,175 578.90039,175 c 32.43661,0 61.88998,-6.42753 83.79688,-17.17188 9.20798,-4.51608 17.21514,-9.9028 23.46289,-16.07812 V 161 c 0,11.56278 -10.09898,23.72627 -29.51758,33.25 C 637.22339,203.77433 609.5241,210 578.90039,210 548.27724,210 520.57738,203.77433 501.1582,194.25 481.73901,184.72627 471.63867,172.56278 471.63867,161 Z m -90.77929,21.55859 c -7.9023,0 -14.23557,2.24238 -18.69532,6.8086 -4.4759,4.55335 -6.66211,11.00486 -6.66211,19.08789 v 6.25781 h -10.32031 a 1.2519852,1.2519852 0 0 0 -1.25195,1.25195 v 9.67969 a 1.2519852,1.2519852 0 0 0 1.25195,1.25195 h 10.32031 v 62.31641 a 1.2519852,1.2519852 0 0 0 1.25196,1.25195 h 12.51757 a 1.2519852,1.2519852 0 0 0 1.25196,-1.25195 v -62.31641 h 14.39648 a 1.2519852,1.2519852 0 0 0 1.25196,-1.25195 v -9.67969 a 1.2519852,1.2519852 0 0 0 -1.25196,-1.25195 H 370.52344 V 189 c 0,-4.21653 1.0337,-7.2462 2.98242,-9.33594 1.95023,-2.09137 4.68494,-3.15234 8.50391,-3.15234 2.31599,0 4.4931,0.19664 6.5332,0.58789 a 1.2519852,1.2519852 0 0 0 1.48437,-1.14649 l 0.66993,-10.16015 a 1.2519852,1.2519852 0 0 0 -0.92188,-1.29102 c -2.94445,-0.80029 -5.92426,-1.19336 -8.91601,-1.19336 z m -201.88477,5.48829 c -8.09936,0 -15.29843,1.90556 -21.51953,5.76171 a 1.2519852,1.2519852 0 0 0 0,0.002 c -6.2068,3.85662 -11.02441,9.40876 -14.38867,16.54101 -3.3655,7.14979 -5.02539,15.39396 -5.02539,24.71289 v 9.47461 c 0,14.19805 3.5811,25.69583 10.81836,34.31446 a 1.2519852,1.2519852 0 0 0 0,0.002 c 7.24963,8.61549 17.00763,12.96289 28.95117,12.96289 10.96206,0 19.92554,-2.90614 26.66211,-8.79492 6.73552,-5.88792 10.71346,-14.28185 11.96289,-24.93164 a 1.2519852,1.2519852 0 0 0 -1.24414,-1.39649 h -13.07227 a 1.2519852,1.2519852 0 0 0 -1.23633,1.0586 c -1.24054,7.95651 -3.73931,13.33904 -7.25976,16.32812 -3.56363,3.02571 -8.76601,4.60742 -15.8125,4.60742 -7.69196,0 -13.46236,-2.91909 -17.72657,-8.94726 -4.27629,-6.04536 -6.46679,-14.26966 -6.46679,-24.79492 v -9.54883 c 0,-11.15114 2.32643,-19.59137 6.8164,-25.43946 4.50037,-5.86154 10.53768,-8.72461 18.54102,-8.7246 6.55157,0 11.4561,1.67975 14.95312,4.94726 3.46276,3.24919 5.85675,8.6477 6.95313,16.32227 a 1.2519852,1.2519852 0 0 0 1.23828,1.07421 h 13.07227 a 1.2519852,1.2519852 0 0 0 1.24609,-1.37695 c -1.07097,-10.56092 -4.86659,-18.99405 -11.42969,-25.05859 -6.57145,-6.08695 -15.33495,-9.0957 -26.0332,-9.0957 z m 224.22851,8.9375 a 1.2519852,1.2519852 0 0 0 -1.25195,1.25195 v 16.47656 h -12.0957 a 1.2519852,1.2519852 0 0 0 -1.25195,1.25195 v 9.67969 a 1.2519852,1.2519852 0 0 0 1.25195,1.25195 h 12.0957 v 44.17969 c 0,6.4186 1.46237,11.54901 4.5586,15.23047 3.09959,3.68775 7.76759,5.51172 13.60937,5.51172 3.23598,0 6.55087,-0.46778 9.95117,-1.39648 a 1.2519852,1.2519852 0 0 0 0.92188,-1.20899 v -10.14453 a 1.2519852,1.2519852 0 0 0 -1.51172,-1.22461 c -2.4883,0.52912 -4.41243,0.78711 -5.69336,0.78711 -2.72971,0 -4.37204,-0.67086 -5.26367,-1.75586 a 1.2519852,1.2519852 0 0 0 -0.008,-0.01 c -0.9557,-1.13775 -1.54101,-3.02218 -1.54101,-5.78906 v -44.17969 h 12.41601 a 1.2519852,1.2519852 0 0 0 1.25196,-1.25195 v -9.67969 a 1.2519852,1.2519852 0 0 0 -1.25196,-1.25195 H 416.97443 V 178.9861 a 1.2519852,1.2519852 0 0 0 -1.25195,-1.25195 z M 471.63867,190.75 c 6.24774,6.17532 14.25491,11.56262 23.46289,16.07812 C 517.00787,217.57188 546.46378,224 578.90039,224 c 32.43661,0 61.88998,-6.42754 83.79688,-17.17188 9.20798,-4.5155 17.21514,-9.9028 23.46289,-16.07812 V 210 c 0,11.5622 -10.09898,23.72567 -29.51758,33.25 C 637.22339,252.77432 609.5241,259 578.90039,259 548.27724,259 520.57738,252.77432 501.1582,243.25 481.7396,233.72567 471.63867,221.5622 471.63867,210 Z m -210.8125,3.35938 c -6.6767,0 -12.14855,2.69614 -16.29883,7.61328 l -0.12109,-5.03711 a 1.2519852,1.2519852 0 0 0 -1.25195,-1.22266 h -12.1836 a 1.2519852,1.2519852 0 0 0 -1.25195,1.25195 v 73.24805 a 1.2519852,1.2519852 0 0 0 1.25195,1.25195 h 12.51758 a 1.2519852,1.2519852 0 0 0 1.25195,-1.25195 v -51.66406 c 2.79414,-6.48705 7.68142,-9.56055 15.47461,-9.56055 2.15769,0 4.14217,0.14341 5.94922,0.44922 a 1.2519852,1.2519852 0 0 0 1.45899,-1.23438 v -11.64453 a 1.2519852,1.2519852 0 0 0 -0.69532,-1.12304 c -1.54816,-0.7652 -3.56068,-1.07618 -6.10156,-1.07617 z m 42.85352,0 c -5.48119,0 -10.55509,1.02137 -15.16602,3.09179 -4.61544,2.05131 -8.32677,4.87842 -11.05664,8.48242 -2.72041,3.57678 -4.14062,7.38885 -4.14062,11.33789 a 1.2519852,1.2519852 0 0 0 1.25195,1.25196 h 12.58984 a 1.2519852,1.2519852 0 0 0 1.25196,-1.25196 c 0,-2.80787 1.23785,-5.09044 4.02539,-7.17773 2.79254,-2.08024 6.23254,-3.14258 10.48828,-3.14258 4.89769,0 8.37146,1.21839 10.70312,3.53711 a 1.2519852,1.2519852 0 0 0 0.004,0.002 c 2.37015,2.34382 3.55859,5.43057 3.55859,9.5625 v 4.49805 h -10.94726 c -10.67738,0 -19.10697,2.13813 -25.20508,6.57031 a 1.2519852,1.2519852 0 0 0 -0.002,0.002 c -6.08272,4.4321 -9.21875,10.83905 -9.21875,18.78515 0,6.58123 2.49932,12.18208 7.36718,16.46875 4.87154,4.30471 11.14597,6.44141 18.60157,6.44141 7.60849,0 14.29291,-2.75581 19.97461,-7.91602 0.40081,2.49044 0.85414,4.54258 1.50976,5.86719 a 1.2519852,1.2519852 0 0 0 1.12109,0.69531 h 13.14454 a 1.2519852,1.2519852 0 0 0 1.25195,-1.25195 v -1.07617 a 1.2519852,1.2519852 0 0 0 -0.10156,-0.4961 c -1.61585,-3.73833 -2.47461,-8.92639 -2.47461,-15.54492 V 219.1329 a 1.2519852,1.2519852 0 0 0 0,-0.002 1.2519852,1.2519852 0 0 0 0,-0.002 1.2519852,1.2519852 0 0 0 0,-0.006 1.2519852,1.2519852 0 0 0 0,-0.002 1.2519852,1.2519852 0 0 0 0,-0.002 1.2519852,1.2519852 0 0 0 0,-0.0156 c -0.1809,-7.67292 -2.82144,-13.89208 -7.875,-18.34766 -5.04886,-4.46391 -12.00486,-6.64648 -20.65625,-6.64648 z m 4.93554,41.57421 h 8.57422 v 13.40235 c -1.47769,2.92172 -3.76371,5.32546 -7.02929,7.20117 a 1.2519852,1.2519852 0 0 0 -0.004,0.002 c -3.348,1.93686 -6.83858,2.88867 -10.53711,2.88867 -3.89537,0 -6.91987,-1.01958 -9.27734,-3.02148 a 1.2519852,1.2519852 0 0 0 -0.002,-0.002 c -2.34097,-1.97685 -3.48632,-4.60575 -3.48632,-8.25782 0,-4.13422 1.61125,-6.95972 5.13281,-9.01953 3.52153,-2.05977 9.07959,-3.19336 16.6289,-3.19336 z" />
</svg>
