<svg width="700" height="273" xml:space="preserve" style="clip-rule:evenodd;fill-rule:evenodd;stroke-linecap:round;stroke-linejoin:round;stroke-miterlimit:1.5" xmlns="http://www.w3.org/2000/svg"><path style="clip-rule:evenodd;fill:#FFF;fill-opacity:1;fill-rule:evenodd;stroke-width:.58459;stroke-linecap:round;stroke-linejoin:round;stroke-miterlimit:1.5" d="M700 63c0-19.4-15.4-35.2-37.3-46-22-10.7-51.4-17-83.8-17H0v273h578.9c32.4 0 61.9-6.4 83.8-17.2 21.9-10.7 37.3-26.4 37.3-45.8"/><path style="fill:currentColor;fill-opacity:1;fill-rule:nonzero;stroke-width:170.092" d="M578.9 0c-32.4 0-61.9 6.3-83.8 17-21.9 10.8-37.3 26.6-37.3 46v147c0 19.4 15.4 35 37.3 45.8 22 10.8 51.4 17.2 83.8 17.2s61.9-6.4 83.8-17.2c21.9-10.7 37.3-26.4 37.3-45.8V63c0-19.4-15.4-35.2-37.3-46-22-10.7-51.4-17-83.8-17ZM9.1 0a9 9 0 0 0-4.8 16.7v134.8a9 9 0 1 0 9.5 0V16.7A9 9 0 0 0 9.1 0zm145.3 4c-7.8 0-14 2.5-18.5 7.6a32.7 32.7 0 0 0-7 21.4v10.4h-12.4v8.3h12.4v81.5h9.4V51.7h17.1v-8.3h-17.1V33c.1-13.2 6-19.9 16.8-19.9 5.8 0 11.6 1.6 17.2 4.4l1.5-8.6a42 42 0 0 0-19.4-5Zm137.7 6.6c-1.8 0-3.4.7-4.4 2a6.8 6.8 0 0 0-1.7 4.8c0 1.8.5 3.5 1.7 4.7 1 1.4 2.6 2 4.4 2 1.9 0 3.4-.6 4.6-2 1-1.2 1.5-2.9 1.5-4.7 0-1.9-.5-3.4-1.5-4.8a5.8 5.8 0 0 0-4.6-2zM579 14c30.6 0 58.3 6.1 77.7 15.6 19.5 9.6 29.6 21.8 29.6 33.4 0 11.6-10.1 23.7-29.6 33.3A182.3 182.3 0 0 1 579 112c-30.6 0-58.3-6.2-77.7-15.8-19.5-9.5-29.6-21.6-29.6-33.2 0-11.6 10.1-23.8 29.6-33.4A182.4 182.4 0 0 1 578.9 14Zm-252 6.4v23h-14v8.3h14v61c.2 14.7 5.8 22.2 16.5 22.2 4 0 7-.5 9-1.5l-.2-8.2c-2.9.5-5 .9-6.6.9-3.4 0-6-1.4-7.3-3.8-1.5-2.4-2.2-6-2.2-10.9V51.7h15.3v-8.3H336v-23Zm188.8 7.2a13 13 0 0 0-6.1 1.2c-1.4.9-2.1 2.5-2.1 4.9 0 4 2.5 6 7.5 6V86c-2.4 0-4.2.5-5.5 1.5-1.4 1-2 2.6-2 4.5 0 4 2.7 6 8.2 6H541a33 33 0 0 0 23.8-8.4c6-5.7 9-13.3 9-22.7v-5.7c0-9.5-3-17.5-9.2-23.9-6.1-6.4-13.6-9.7-22.6-9.7zm74 0c-2.6 0-4.6.5-6.1 1.4-1.4.8-2.1 2.3-2.1 4.7 0 4 2.7 6 8.1 6h1.9V86h-1.9c-5.4 0-8.1 2-8.1 6s2.7 6 8.1 6H626c7.3 0 13.2-1.7 17.7-5.3a17 17 0 0 0 6.6-14c0-7.4-4.3-13.2-13-17.5 5.1-4 7.7-8.5 7.7-13.6 0-5.8-2.3-10.5-6.9-14.3a26 26 0 0 0-17.3-5.7zm-62.4 12.1H541a19 19 0 0 1 14.8 6.2c3.8 4 5.7 9 5.7 15v5.6a23.6 23.6 0 0 1-3.7 12.7c-1.3 2.1-3.4 3.8-6.3 5A26.1 26.1 0 0 1 541 86h-13.7zm76.5 0h16.4c3.9 0 7 .7 9.1 2a6.4 6.4 0 0 1 3.4 5.7c0 2.8-1.4 5-4.2 6.8a20 20 0 0 1-10.7 2.5h-14Zm-528.4 2c-5.3 0-9.8 1.4-14.1 4.2-4 3-7.5 6.9-10.2 11.8l-.2-14.3h-8.8v89.8h9.2V70.8c2-6.3 4.9-11.2 8.8-14.8a18 18 0 0 1 13-5.5c5.9 0 10.3 2 13 5.7C89 60 90.4 66 90.4 74v59.2h9.2V73C99 52 91 41.7 75.4 41.7Zm162.4 0c-5.3 0-9.9 1.4-14.1 4.2-4.1 3-7.5 6.9-10.2 11.8l-.2-14.3h-8.9v89.8h9.2V70.8c2-6.3 5-11.2 8.9-14.8a18 18 0 0 1 13-5.5c5.9 0 10.3 2 13 5.7 2.7 3.9 4.3 9.8 4.3 17.8v59.2h9.1V73c-.5-21-8.5-31.3-24.1-31.3Zm161.7 0c-10 0-17.8 3.7-23.6 11.2a49.6 49.6 0 0 0-8.7 31v11c.2 12.8 3 22.7 9.2 29.6 6 6.8 14.1 10.4 24.8 10.4 12 0 20.8-4 26.7-12l-4.9-6.2a26.7 26.7 0 0 1-21.4 9.7c-8 0-14.3-2.7-18.7-8.3a38.9 38.9 0 0 1-6.5-23.8v-5.1h53.4v-8.7c-.2-13.1-2.7-22.8-8-29.3-5-6.3-12.4-9.5-22.3-9.5zm-230.1 1.7v89.8h9.3V43.4Zm118 0v89.8h9.3V43.4Zm112.1 7c13.6 0 20.6 9.2 21 27.7v2.4h-44.1c.3-9.9 2.6-17.4 6.5-22.5 3.9-5 9.5-7.6 16.6-7.6zm204.3 18.4h16.7c5.2 0 9.5 1 12.7 3 3.2 1.9 4.8 4.4 4.8 7.7 0 4.3-4.2 6.5-12.6 6.5h-21.6Zm-132.2 24a89 89 0 0 0 23.5 16c22 10.8 51.4 17.2 83.8 17.2s61.9-6.4 83.8-17.2a89 89 0 0 0 23.5-16V112c0 11.6-10.1 23.7-29.6 33.3A182.3 182.3 0 0 1 579 161c-30.6 0-58.3-6.2-77.7-15.8-19.5-9.5-29.6-21.6-29.6-33.2Zm0 49a89 89 0 0 0 23.5 16c22 10.8 51.4 17.2 83.8 17.2s61.9-6.4 83.8-17.2a89 89 0 0 0 23.5-16V161c0 11.6-10.1 23.7-29.6 33.3A182.3 182.3 0 0 1 579 210c-30.6 0-58.3-6.2-77.7-15.8-19.5-9.5-29.6-21.6-29.6-33.2ZM381 163.3a25 25 0 0 0-18.7 6.8c-4.5 4.6-6.7 11-6.7 19.1v6.3h-10.3a1.3 1.3 0 0 0-1.3 1.2v9.7a1.3 1.3 0 0 0 1.3 1.2h10.3V270a1.3 1.3 0 0 0 1.3 1.2h12.5a1.3 1.3 0 0 0 1.2-1.2v-62.4H385a1.3 1.3 0 0 0 1.3-1.2v-9.7a1.3 1.3 0 0 0-1.3-1.2h-14.4V189c0-4.2 1-7.2 3-9.3 2-2.1 4.7-3.2 8.5-3.2 2.3 0 4.5.2 6.5.6a1.3 1.3 0 0 0 1.5-1.1l.7-10.2a1.3 1.3 0 0 0-1-1.3c-2.9-.8-5.8-1.2-8.8-1.2zm-202 5.5a38.1 38.1 0 0 0-36 22.3c-3.2 7.2-4.9 15.4-4.9 24.7v9.5c0 14.2 3.6 25.7 10.9 34.3 7.2 8.6 17 13 29 13 10.9 0 19.8-3 26.6-8.8a37.6 37.6 0 0 0 12-25 1.3 1.3 0 0 0-1.3-1.4h-13a1.3 1.3 0 0 0-1.3 1.1c-1.3 8-3.8 13.3-7.3 16.3s-8.7 4.6-15.8 4.6c-7.7 0-13.5-2.9-17.7-9-4.3-6-6.5-14.2-6.5-24.7v-9.6a41 41 0 0 1 6.8-25.4A21.9 21.9 0 0 1 179 182c6.5 0 11.4 1.7 15 5 3.4 3.2 5.8 8.6 6.9 16.3a1.3 1.3 0 0 0 1.2 1h13a1.3 1.3 0 0 0 1.3-1.3 38 38 0 0 0-11.4-25.1 37 37 0 0 0-26-9.1zm224.3 9a1.3 1.3 0 0 0-1.2 1.2v16.5h-12.1a1.3 1.3 0 0 0-1.3 1.2v9.7a1.3 1.3 0 0 0 1.3 1.2h12v44.2a23 23 0 0 0 4.6 15.3c3.1 3.6 7.8 5.5 13.6 5.5 3.3 0 6.6-.5 10-1.4a1.3 1.3 0 0 0 .9-1.2v-10.2a1.3 1.3 0 0 0-1.5-1.2 30 30 0 0 1-5.7.8c-2.7 0-4.4-.7-5.3-1.8-1-1.1-1.5-3-1.5-5.8v-44.2h12.4a1.3 1.3 0 0 0 1.2-1.2v-9.7a1.3 1.3 0 0 0-1.2-1.2H417V179a1.3 1.3 0 0 0-1.3-1.3zm68.4 13a89 89 0 0 0 23.5 16c22 10.8 51.4 17.2 83.8 17.2s61.9-6.4 83.8-17.2a89 89 0 0 0 23.5-16V210c0 11.6-10.1 23.7-29.6 33.3A182.3 182.3 0 0 1 579 259c-30.6 0-58.3-6.2-77.7-15.8-19.5-9.5-29.6-21.6-29.6-33.2ZM260.8 194c-6.7 0-12.1 2.7-16.3 7.6v-5a1.3 1.3 0 0 0-1.3-1.2H231a1.3 1.3 0 0 0-1.3 1.2V270a1.3 1.3 0 0 0 1.3 1.2h12.5a1.3 1.3 0 0 0 1.2-1.2v-51.7c2.8-6.5 7.7-9.6 15.5-9.6 2.2 0 4.2.2 6 .5a1.3 1.3 0 0 0 1.4-1.2v-11.7a1.3 1.3 0 0 0-.7-1.1c-1.5-.8-3.5-1-6-1zm42.9 0c-5.5 0-10.6 1-15.2 3.1-4.6 2-8.3 4.9-11 8.5a18.6 18.6 0 0 0-4.2 11.3 1.3 1.3 0 0 0 1.3 1.3h12.6a1.3 1.3 0 0 0 1.2-1.3c0-2.8 1.2-5 4-7.2a17 17 0 0 1 10.5-3.1c5 0 8.4 1.2 10.7 3.5 2.4 2.4 3.6 5.5 3.6 9.6v4.5h-11a42.2 42.2 0 0 0-25.2 6.6c-6 4.4-9.2 10.8-9.2 18.8 0 6.5 2.5 12.1 7.4 16.4a27.2 27.2 0 0 0 18.6 6.5 29 29 0 0 0 20-8c.4 2.5.8 4.6 1.5 6a1.3 1.3 0 0 0 1 .6h13.2a1.3 1.3 0 0 0 1.3-1.2v-1.1a1.3 1.3 0 0 0-.1-.5c-1.6-3.7-2.5-9-2.5-15.6v-33.7a24.2 24.2 0 0 0-7.9-18.3c-5-4.5-12-6.7-20.6-6.7zm5 41.6h8.5V249c-1.5 3-3.8 5.3-7 7.2-3.4 2-6.9 2.9-10.6 2.9-3.9 0-6.9-1-9.3-3a10 10 0 0 1-3.4-8.3c0-4.1 1.6-7 5-9 3.6-2 9.2-3.2 16.7-3.2z"/></svg>
